<?xml version="1.0" standalone="no"?>
<!DOCTYPE svg PUBLIC "-//W3C//DTD SVG 20010904//EN"
 "http://www.w3.org/TR/2001/REC-SVG-20010904/DTD/svg10.dtd">
<svg version="1.0" xmlns="http://www.w3.org/2000/svg"
 width="1000.000000pt" height="1000.000000pt" viewBox="0 0 1000.000000 1000.000000"
 preserveAspectRatio="xMidYMid meet">
<metadata>
Created by potrace 1.14, written by Peter Selinger 2001-2017
</metadata>
<g transform="translate(0.000000,1000.000000) scale(0.100000,-0.100000)"
fill="#000000" stroke="none">
<path d="M0 5000 l0 -5000 5000 0 5000 0 0 5000 0 5000 -5000 0 -5000 0 0
-5000z m9100 0 l0 -1600 -4100 0 -4100 0 0 1600 0 1600 4100 0 4100 0 0 -1600z"/>
<path d="M2755 6191 c-139 -40 -268 -133 -367 -265 -117 -155 -127 -185 -339
-986 -169 -638 -192 -737 -197 -821 -5 -108 7 -177 45 -253 32 -64 73 -101
153 -140 l65 -31 719 -3 c812 -3 779 -6 860 73 35 34 49 57 65 112 26 87 26
129 1 170 -35 59 -26 58 -518 63 l-454 5 -29 33 c-16 18 -29 41 -29 51 0 16
337 1287 386 1457 15 53 44 87 104 123 34 20 46 21 460 21 424 0 425 0 475 24
68 31 110 82 135 162 33 110 24 159 -39 201 l-34 23 -701 -1 c-637 0 -707 -2
-761 -18z"/>
<path d="M6490 6191 c-71 -22 -134 -76 -158 -137 -17 -42 -592 -2215 -592
-2237 0 -27 27 -73 56 -96 27 -21 28 -21 974 -21 l948 0 86 25 c151 44 250
108 336 217 51 64 66 106 160 457 93 350 98 394 50 453 -44 53 -120 92 -232
119 -54 13 -98 27 -98 30 0 3 37 9 83 12 187 12 347 100 412 227 7 14 45 144
85 290 61 222 73 278 74 345 0 94 -23 157 -82 219 -42 44 -77 61 -177 87 -66
18 -127 19 -985 18 -503 0 -926 -4 -940 -8z m1247 -421 c18 -11 35 -30 38 -43
4 -14 -17 -109 -50 -233 -52 -192 -59 -212 -92 -246 -56 -58 -67 -60 -309 -56
-241 3 -258 7 -290 69 -21 42 -18 78 22 228 42 156 60 197 106 236 71 60 93
65 328 65 196 0 218 -2 247 -20z m-280 -997 c63 -30 63 -37 -7 -301 -74 -278
-77 -286 -125 -332 l-36 -35 -239 0 c-225 0 -240 1 -267 21 -15 11 -37 37 -47
58 l-19 39 53 201 c28 110 63 220 76 243 30 51 99 101 157 112 23 5 127 9 230
10 157 1 195 -2 224 -16z"/>
</g>
</svg>
